PathFileType	4	(X/Y/Z)	RBDS022\RBDS022runT25.trc
DataRate	CameraRate	NumFrames	NumMarkers	Units	OrigDataRate	OrigDataStartFrame	OrigNumFrames
150.000000	150.000000	4	33	mm	150.000000	1125	4500
Frame#	Time	L.ASIS			L.Heel.Bottom			L.Heel.Lateral			L.Heel.Top			L.Iliac.Crest			L.MT1			L.MT5			L.PSIS			L.Shank.Bottom.Lateral			L.Shank.Bottom.Medial			L.Shank.Top.Lateral			L.Shank.Top.Medial			L.Thigh.Bottom.Lateral			L.Thigh.Bottom.Medial			L.Thigh.Top.Lateral			L.Thigh.Top.Medial			R.ASIS			R.ASY			R.Heel.Bottom			R.Heel.Lateral			R.Heel.Top			R.Iliac.Crest			R.MT1			R.MT5			R.PSIS			R.Shank.Bottom.Lateral			R.Shank.Bottom.Medial			R.Shank.Top.Lateral			R.Shank.Top.Medial			R.Thigh.Bottom.Lateral			R.Thigh.Bottom.Medial			R.Thigh.Top.Lateral			R.Thigh.Top.Medial			
		X1	Y1	Z1	X2	Y2	Z2	X3	Y3	Z3	X4	Y4	Z4	X5	Y5	Z5	X6	Y6	Z6	X7	Y7	Z7	X8	Y8	Z8	X9	Y9	Z9	X10	Y10	Z10	X11	Y11	Z11	X12	Y12	Z12	X13	Y13	Z13	X14	Y14	Z14	X15	Y15	Z15	X16	Y16	Z16	X17	Y17	Z17	X18	Y18	Z18	X19	Y19	Z19	X20	Y20	Z20	X21	Y21	Z21	X22	Y22	Z22	X23	Y23	Z23	X24	Y24	Z24	X25	Y25	Z25	X26	Y26	Z26	X27	Y27	Z27	X28	Y28	Z28	X29	Y29	Z29	X30	Y30	Z30	X31	Y31	Z31	X32	Y32	Z32	X33	Y33	Z33	

1126	7.500000000000001	2252.128181762751	916.1577031970382	917.9696573789346	1858.173317389565	289.6076635212631	964.1957878528094	1893.157644439715	284.4136203505148	917.1159706683948	1900.854860315	306.9193304232096	968.673774837883	2184.388191836512	992.7619205987065	863.7011822549435	1987.447138013245	112.3948264410928	965.8978400185704	1961.497753182084	154.843507082997	862.3803704687924	2081.25977975626	963.6816901954707	980.5587063926541	2016.293217274576	318.060761546212	897.2050966969196	1997.698467751609	351.6186721851066	937.5646814078448	2078.693545316109	367.6723105959406	886.1078444139162	2061.290797853659	400.6758393189655	924.7432853273174	2286.018093318704	566.8205624926015	862.7185237052054	2224.720058311394	546.4888553146136	896.8370152901476	2244.882944967442	667.0322474943001	848.1281585634099	2185.215835245988	647.1512314519182	878.6378112543434	2236.106280678364	939.5757416918265	1155.213186718318	2154.651914452184	80.08774207030983	1046.646135479617	1967.131130670861	40.96142837540826	1016.745641176293	1992.364661376209	59.17472476475697	1065.431964472627	1979.553969452596	83.68737771988486	1017.37291484592	2173.539182472021	1005.327094129451	1189.340040703666	2181.502261664598	36.82905257347367	1003.195201743247	2143.869971757719	36.55879816201087	1114.364605162823	2078.946457975116	971.0704020952388	1064.683025518422	2064.703580156342	167.6848848723789	1096.294809417961	2039.431324323162	194.5694570007078	1060.902817580326	2101.667367114654	239.5209255583068	1122.747767452878	2070.765275853578	264.7132646175943	1086.881359952884	2226.162091544157	559.3803718925928	1177.549492234558	2163.746674211241	552.0054843561956	1143.340023561384	2200.011425243125	664.3691709533168	1201.986291885535	2139.083104526757	656.0619501789794	1171.048693418645	
1127	7.506666666666667	2251.202912104837	919.0633678197427	917.9376560329179	1872.639315620445	276.3199889293199	964.5659395229018	1907.885292032617	272.8577616272111	917.5265023311479	1914.427744361704	295.7548083653493	969.0147546712892	2181.633550905011	995.8978736774239	863.7192915534415	2010.724239955263	105.8388378759393	965.5862817049488	1982.526645435375	147.1538051510562	862.2142634999171	2080.363797407078	966.6840497701689	980.4968180532434	2029.619621183529	312.2161001408733	897.2901124570685	2009.675103333685	345.0400338482734	937.6355232002005	2089.801676240543	364.4371131637333	885.9636168312263	2071.137425027684	396.7113123185575	924.6215638895778	2291.363440598713	572.7040704409585	861.693532465209	2230.649115824378	550.8287938966888	895.9516654423472	2247.889113600307	671.9808949097059	847.5223801826455	2188.643428500978	650.5317763443315	877.8527097334628	2235.146902602257	941.8503236648228	1155.370076402277	2138.610510286271	80.39956503356611	1047.021159192815	1950.715643714951	44.2514296577769	1016.856628983055	1976.147231708654	61.883626136446	1065.635941679001	1963.642998164469	86.76441094786161	1017.705873688378	2174.473410330683	1008.234473255619	1189.247422149137	2164.357599916535	36.85070787358692	1003.181772711952	2126.982609470111	36.62907674480176	1114.367331106041	2078.321074715978	974.1866455881327	1064.600711836209	2049.349597425571	169.9607144957302	1096.585870262019	2024.366659622293	197.0327775550129	1061.127643071833	2086.89821051062	241.4871789028323	1123.087497400832	2056.234511275704	266.9430479546958	1087.154059873053	2216.484137734241	560.7350046162172	1177.777448775989	2153.852143495356	554.9142832605593	1143.83229490829	2193.167680401179	666.4227683538273	1202.11278600536	2131.993013921754	659.6552863918826	1171.276069798497	
1128	7.513333333333334	2250.497348733486	922.3804864748496	917.9920932920242	1887.757715519376	262.3375457150169	964.9821143551046	1923.167999644474	260.5895832121465	917.9818304030621	1928.510434081707	283.9280453920707	969.3608536135544	2179.385117072971	999.4233706685135	863.7271297024588	2034.684232950731	99.2846604420257	965.6800680690791	2004.180239443703	139.0797445976187	862.36431861684	2079.611173825284	970.1279150368608	980.3243213755978	2043.137848636751	305.9281778415549	897.4630199236976	2021.746973886359	337.9344205304723	937.7589995311732	2100.841234881194	360.8492044456319	885.878655185842	2080.819619278629	392.3045796320249	924.5361101483863	2296.130465539962	578.931695889959	860.8234906234995	2236.003913172544	555.7163348286938	895.2677657989158	2250.564733951353	677.3020539512455	846.9520774665889	2191.751598697967	654.4754414167293	877.1640971576187	2234.286242112516	944.4856721957876	1155.548103431884	2122.757568992746	80.79612783628851	1047.488934735524	1934.503096894425	48.13074309004321	1017.047508910456	1960.155125977084	65.06855394749324	1065.925988963482	1948.016174216548	90.3905531431767	1018.161509289988	2175.454763404104	1011.332760393005	1189.092013705633	2147.221183755196	36.99951122721281	1003.200126243046	2110.197105021266	36.77123745090267	1114.421501522604	2077.84785520578	977.6623918479503	1064.437791370924	2034.137919755559	172.674076743829	1096.935596950479	2009.445302086907	199.8914988630351	1061.3969566961	2072.209793260728	243.9408581112533	1123.458572348403	2041.760574824458	269.6109029666526	1087.45790431834	2206.655474884904	562.6620965980735	1177.943347217272	2143.88936913261	558.4669188568334	1144.180610967032	2186.260983826971	668.9804965672555	1202.169021870227	2124.907293621628	663.799008045666	1171.382827144385	
1129	7.52	2249.998732123568	926.0825226286005	918.1003026340442	1903.595725694221	247.7892963674995	965.4199191408064	1939.068355190278	247.7426891058246	918.4537349743164	1943.16315014081	271.5487513714959	969.6974211914631	2177.712183604897	1003.342180697365	863.7169879556518	2059.26791082923	92.8499864232937	966.1768690723153	2026.472937657359	130.743839125804	862.8232048846914	2079.006858372931	973.9736287755082	980.0695061878811	2056.889572827987	299.2490243362503	897.7130304452409	2033.97601693899	330.3511907224448	937.917692521219	2111.867864800495	356.9011181057952	885.8446119454061	2090.403517867307	387.4514921288578	924.4666974980237	2300.285461115856	585.3868634774735	860.1377694895367	2240.724067051824	561.0394163228823	894.7975930696437	2252.890716596771	682.9048540065395	846.4483112132622	2194.503577093761	658.9017819823413	876.5960016523054	2233.572545433255	947.4205340767355	1155.717487177524	2107.112162939774	81.25855172329457	1048.050251364208	1918.535330795666	52.60627625887371	1017.317116975989	1944.430598338743	68.73288895523139	1066.299647131402	1932.719702829937	94.56962902066499	1018.736964386722	2176.421395489064	1014.609983913247	1188.887039545758	2130.121573072636	37.27391972834492	1003.250506415603	2093.541336507711	36.9826002916173	1114.531634063542	2077.547316258403	981.4573170663599	1064.23046917211	2019.117195931769	175.8210348151281	1097.340690630683	1994.724568857845	203.1431582395781	1061.702606018996	2057.662840797562	246.8727758457071	1123.851953498063	2027.411733547249	272.7087104201003	1087.777853150263	2196.766088210394	565.1239713336186	1178.039433094857	2133.941600056238	562.6166705868537	1144.376708597933	2179.367870569772	671.999931801602	1202.14192381029	2117.898933634406	668.442889658742	1171.362666127492	
